<svg width="356" height="357" viewBox="0 0 356 357" fill="none" xmlns="http://www.w3.org/2000/svg">
<rect width="356" height="356.556" fill="black" fill-opacity="0"/>
<ellipse cx="178" cy="178.778" rx="178" ry="177.778" fill="#FFF2F4"/>
<rect width="356" height="355.556" fill="black" fill-opacity="0"/>
<mask id="mask0" mask-type="alpha" maskUnits="userSpaceOnUse" x="0" y="0" width="356" height="356">
<ellipse cx="178" cy="177.778" rx="178" ry="177.778" fill="#F9F9FA"/>
</mask>
<g mask="url(#mask0)">
<rect width="173.253" height="316.444" fill="black" fill-opacity="0" transform="translate(90.1866 44.5556)"/>
<rect width="173.253" height="316.444" fill="black" fill-opacity="0" transform="translate(90.1866 44.5556)"/>
<rect width="173.253" height="316.444" fill="black" fill-opacity="0" transform="translate(90.1866 44.5556)"/>
<path d="M248.881 44.5556H104.746C96.705 44.5556 90.1866 51.0446 90.1866 59.0492V346.506C90.1866 354.511 96.705 361 104.746 361H248.881C256.922 361 263.44 354.511 263.44 346.506V59.0492C263.44 51.0446 256.922 44.5556 248.881 44.5556Z" fill="#E0DFE6"/>
<path d="M248.269 145H104.731C99.3569 145 95 152.774 95 162.364V318.636C95 328.226 99.3569 336 104.731 336H248.269C253.643 336 258 328.226 258 318.636V162.364C258 152.774 253.643 145 248.269 145Z" fill="#36B87B"/>
<rect x="95" y="88" width="163" height="245" rx="8" fill="#F58A5B"/>
<path d="M248.881 44.5556H104.746C100.884 44.5556 97.1813 46.0826 94.4509 48.8006C91.7205 51.5187 90.1866 55.2052 90.1866 59.0492V80.7897H263.44V59.0492C263.44 55.2052 261.906 51.5187 259.176 48.8006C256.445 46.0826 252.742 44.5556 248.881 44.5556V44.5556Z" fill="#3F3D4B"/>
<path d="M90.1866 317.519V346.506C90.1866 350.35 91.7205 354.037 94.4509 356.755C97.1813 359.473 100.884 361 104.746 361H248.881C252.742 361 256.445 359.473 259.176 356.755C261.906 354.037 263.44 350.35 263.44 346.506V317.519H90.1866Z" fill="#3F3D4B"/>
<path d="M210.299 61.4648H142.357C141.687 61.4648 141.144 62.0056 141.144 62.6726C141.144 63.3397 141.687 63.8804 142.357 63.8804H210.299C210.969 63.8804 211.513 63.3397 211.513 62.6726C211.513 62.0056 210.969 61.4648 210.299 61.4648Z" fill="#B2B1C2"/>
<path d="M177.541 351.338C184.242 351.338 189.674 345.93 189.674 339.26C189.674 332.589 184.242 327.182 177.541 327.182C170.841 327.182 165.409 332.589 165.409 339.26C165.409 345.93 170.841 351.338 177.541 351.338Z" fill="#B2B1C2"/>
<rect width="90" height="90" fill="black" fill-opacity="0" transform="translate(133 130)"/>
<path d="M178 130C189.935 130 201.381 134.741 209.82 143.18C218.259 151.619 223 163.065 223 175C223 186.935 218.259 198.381 209.82 206.82C201.381 215.259 189.935 220 178 220C166.065 220 154.619 215.259 146.18 206.82C137.741 198.381 133 186.935 133 175C133 163.065 137.741 151.619 146.18 143.18C154.619 134.741 166.065 130 178 130ZM178 139C168.452 139 159.295 142.793 152.544 149.544C145.793 156.295 142 165.452 142 175C142 184.548 145.793 193.705 152.544 200.456C159.295 207.207 168.452 211 178 211C187.548 211 196.705 207.207 203.456 200.456C210.207 193.705 214 184.548 214 175C214 165.452 210.207 156.295 203.456 149.544C196.705 142.793 187.548 139 178 139ZM178 179.5C176.807 179.5 175.662 179.026 174.818 178.182C173.974 177.338 173.5 176.193 173.5 175V157C173.5 155.807 173.974 154.662 174.818 153.818C175.662 152.974 176.807 152.5 178 152.5C179.193 152.5 180.338 152.974 181.182 153.818C182.026 154.662 182.5 155.807 182.5 157V175C182.5 176.193 182.026 177.338 181.182 178.182C180.338 179.026 179.193 179.5 178 179.5ZM178 197.5C176.807 197.5 175.662 197.026 174.818 196.182C173.974 195.338 173.5 194.193 173.5 193C173.5 191.807 173.974 190.662 174.818 189.818C175.662 188.974 176.807 188.5 178 188.5C179.193 188.5 180.338 188.974 181.182 189.818C182.026 190.662 182.5 191.807 182.5 193C182.5 194.193 182.026 195.338 181.182 196.182C180.338 197.026 179.193 197.5 178 197.5Z" fill="white"/>
</g>
</svg>
