<svg width="356" height="356" xmlns="http://www.w3.org/2000/svg" xmlns:svg="http://www.w3.org/2000/svg">
 <mask height="356" width="356" y="0" x="0" maskUnits="userSpaceOnUse" id="mask0">
  <ellipse  fill="#F9F9FA" ry="177.778" rx="178" cy="177.778" cx="178"/>
 </mask>
 <g>
  <ellipse fill="#F9F9FA" ry="177.778" rx="178" cy="177.778" cx="178"/>
  <g mask="url(#mask0)">
   <path fill="#E0DFE6" d="m248.8806,44.555599l-144.134903,0c-8.040764,0 -14.559097,6.489021 -14.559097,14.493599l0,287.457394c0,8.003998 6.518333,14.493011 14.559097,14.493011l144.134903,0c8.041,0 14.559006,-6.489014 14.559006,-14.493011l0,-287.457394c0,-8.004578 -6.518005,-14.493599 -14.559006,-14.493599z"/>
   <path fill="white" d="m247.910706,220.895004l-143.164932,0c-5.360519,0 -9.70607,4.326004 -9.70607,9.66243l0,86.961853c0,5.336731 4.345551,9.66272 9.70607,9.66272l143.164932,0c5.360001,0 9.705994,-4.325989 9.705994,-9.66272l0,-86.961853c0,-5.336426 -4.345993,-9.66243 -9.705994,-9.66243z"/>
   <path fill="#3F3D4B" d="m248.8806,44.555599l-144.134903,0c-3.861298,0 -7.564476,1.527 -10.294838,4.24509c-2.730362,2.718079 -4.264259,6.40461 -4.264259,10.248508l0,21.740498l173.253006,0l0,-21.740498c0,-3.843899 -1.534027,-7.53043 -4.264008,-10.248508c-2.730011,-2.71809 -6.432999,-4.24509 -10.294998,-4.24509l0,0z"/>
   <path fill="#3F3D4B" d="m90.1866,317.519012l0,28.987305c0,3.843903 1.533897,7.530487 4.264259,10.248505c2.730362,2.718079 6.43354,4.245087 10.294838,4.245087l144.134903,0c3.862,0 7.564987,-1.527008 10.294998,-4.245087c2.72998,-2.718018 4.264008,-6.404602 4.264008,-10.248505l0,-28.987305l-173.253006,0z"/>
   <path fill="#B2B1C2" d="m210.298706,61.464802l-67.942444,0c-0.670059,0 -1.213257,0.540749 -1.213257,1.207802c0,0.667049 0.543198,1.207809 1.213257,1.207809l67.942444,0c0.670105,0 1.213303,-0.54076 1.213303,-1.207809c0,-0.667053 -0.543198,-1.207802 -1.213303,-1.207802z"/>
   <path fill="#B2B1C2" d="m177.541595,351.338104c6.700607,0 12.132599,-5.407593 12.132599,-12.078094c0,-6.670471 -5.431992,-12.078003 -12.132599,-12.078003c-6.700653,0 -12.132599,5.407532 -12.132599,12.078003c0,6.670502 5.431946,12.078094 12.132599,12.078094z"/>
   <path fill="#827CFF" d="m225.734879,261.113464c0.496719,-0.662842 1.063797,-1.272308 1.691711,-1.818146c0.438416,-0.372101 0.839142,-0.78479 1.196579,-1.2323c0.25853,-0.314514 0.397125,-0.707397 0.391983,-1.111115c0.006973,-0.280579 -0.057205,-0.558472 -0.186829,-0.808777c-0.129608,-0.25032 -0.320618,-0.46524 -0.555878,-0.625549c-0.57373,-0.369064 -1.254105,-0.546249 -1.93927,-0.505035c-0.717255,-0.023438 -1.428345,0.136719 -2.063065,0.464645c-0.604111,0.318527 -1.126205,0.767563 -1.526672,1.313095l-2.99144,-1.717133c0.703033,-1.054276 1.687714,-1.899704 2.847031,-2.444412c1.292542,-0.583527 2.703033,-0.873566 4.126114,-0.84848c1.609024,-0.073318 3.201752,0.343048 4.559357,1.19191c0.5495,0.359329 0.995605,0.850845 1.295395,1.427444c0.299805,0.576584 0.443405,1.218933 0.417007,1.865433c0.016098,0.60199 -0.096298,1.200623 -0.330109,1.757538c-0.1996,0.462341 -0.470993,0.891663 -0.804596,1.272736c-0.330093,0.343414 -0.742691,0.747467 -1.258499,1.191925c-0.485596,0.412903 -0.934204,0.865723 -1.340988,1.353455c-0.277039,0.383484 -0.421616,0.843597 -0.412613,1.313202l-3.651611,0c-0.035828,-0.71759 0.151184,-1.428986 0.536392,-2.040436zm-0.391983,7.535248c-0.218994,-0.201904 -0.392639,-0.44632 -0.509842,-0.717621c-0.117218,-0.271301 -0.175446,-0.563477 -0.170959,-0.858093c-0.007782,-0.287201 0.047089,-0.572601 0.160934,-0.837402c0.113846,-0.264771 0.284042,-0.502686 0.499237,-0.697876c0.466034,-0.418701 1.080154,-0.643311 1.712341,-0.626312c0.63147,-0.012787 1.244034,0.211304 1.712341,0.626312c0.215195,0.19519 0.385376,0.433105 0.499237,0.697876c0.113831,0.264801 0.168701,0.550201 0.160934,0.837402c0.004486,0.294617 -0.053741,0.586792 -0.170944,0.858093c-0.117233,0.271301 -0.290863,0.515717 -0.509857,0.717621c-0.46727,0.403381 -1.068787,0.626007 -1.691711,0.626007c-0.622925,0 -1.224442,-0.222626 -1.691711,-0.626007z"/>
   <path fill="#5C50CA" d="m243.0569,290.946991l-58.236389,0c-1.340118,0 -2.426514,1.081512 -2.426514,2.415619l0,12.077972c0,1.334106 1.086395,2.415619 2.426514,2.415619l58.236389,0c1.340195,0 2.426498,-1.081512 2.426498,-2.415619l0,-12.077972c0,-1.334106 -1.086304,-2.415619 -2.426498,-2.415619z"/>
   <path stroke-miterlimit="10" stroke="#5C50CA" d="m169.261902,290.946991l-58.236382,0c-1.340134,0 -2.426521,1.081512 -2.426521,2.415619l0,12.077972c0,1.334106 1.086388,2.415619 2.426521,2.415619l58.236382,0c1.340195,0 2.426498,-1.081512 2.426498,-2.415619l0,-12.077972c0,-1.334106 -1.086304,-2.415619 -2.426498,-2.415619z"/>
   <path fill="#8986A0" d="m216.360519,113.207436c0.001205,-0.129242 -0.044937,-0.254494 -0.129791,-0.35231c-0.084854,-0.097824 -0.202621,-0.161507 -0.331238,-0.179123l-0.412521,0c-0.775055,0.01857 -1.543335,0.14875 -2.280914,0.386497c-0.9263,0.267143 -1.764038,0.775864 -2.426529,1.473511l0,-1.231956c0,-0.147354 -0.058792,-0.288658 -0.163467,-0.39286c-0.10466,-0.104195 -0.246613,-0.16272 -0.394623,-0.16272l-2.13533,0c-0.148026,0 -0.289978,0.058525 -0.394638,0.16272c-0.10466,0.104202 -0.163467,0.245506 -0.163467,0.39286l0,14.735252c0,0.147293 0.058807,0.288589 0.163467,0.392792c0.10466,0.104202 0.246613,0.162704 0.394638,0.162704l2.111069,0c0.075302,0.003296 0.150482,-0.008698 0.221024,-0.035095c0.070541,-0.026505 0.134964,-0.06691 0.189392,-0.118805c0.054413,-0.051895 0.097717,-0.114304 0.127258,-0.183304c0.029556,-0.069 0.044754,-0.143295 0.044678,-0.218292l0,-7.657524c-0.051102,-0.633118 0.052414,-1.269157 0.301697,-1.853828c0.249298,-0.584679 0.636978,-1.100639 1.129959,-1.50386c0.992966,-0.880798 2.242798,-1.422493 3.566971,-1.54599c0.1418,-0.011703 0.274384,-0.074669 0.372742,-0.177032c0.098343,-0.102356 0.155655,-0.237015 0.161102,-0.378555l0,-1.739243l0.048523,0.024162z"/>
   <path fill="#8986A0" d="m188.844009,114.29454c-1.605331,-1.10611 -3.534332,-1.649933 -5.483902,-1.54599l-4.391998,0c-0.148026,0 -0.289978,0.05854 -0.394638,0.162727c-0.10466,0.104202 -0.163467,0.245514 -0.163467,0.39286l0,20.073669c0,0.1474 0.058807,0.288696 0.163467,0.392899c0.10466,0.104187 0.246613,0.162689 0.394638,0.162689l2.159592,0c0.14801,0 0.289978,-0.058502 0.394638,-0.162689c0.10466,-0.104202 0.163452,-0.245499 0.163452,-0.392899l0,-4.275604c-0.006821,-0.1371 0.039886,-0.271408 0.130356,-0.375c0.090454,-0.103607 0.217651,-0.168304 0.35495,-0.180603l1.261795,0c1.954468,0.085495 3.879944,-0.493805 5.459717,-1.642601c0.723999,-0.542603 1.303696,-1.253304 1.688599,-2.070198c0.384903,-0.816803 0.563202,-1.714905 0.519501,-2.616058l0,-3.212776c0.037994,-0.908775 -0.147797,-1.813034 -0.541107,-2.634018c-0.393295,-0.820992 -0.9823,-1.533806 -1.715591,-2.076408zm-1.164719,7.923203c0.030075,0.4608 -0.053711,0.921959 -0.24408,1.343056c-0.190353,0.421104 -0.481461,0.789299 -0.847855,1.072502c-0.988235,0.605103 -2.143158,0.884102 -3.300049,0.797195l-1.140457,0c-0.072189,0.000107 -0.143661,-0.014397 -0.210068,-0.042694c-0.066406,-0.028198 -0.126373,-0.069504 -0.17627,-0.121399c-0.049896,-0.051903 -0.088699,-0.113403 -0.114059,-0.180702c-0.025345,-0.067299 -0.036728,-0.139 -0.033447,-0.2108l0,-8.551254c0,-0.147346 0.058792,-0.288666 0.163452,-0.392853c0.104675,-0.104195 0.246628,-0.162735 0.394638,-0.162735l1.116211,0c1.15921,-0.076385 2.313324,0.210854 3.300049,0.821312c0.366394,0.283203 0.657501,0.651459 0.847855,1.072556c0.190369,0.421112 0.274155,0.88224 0.24408,1.34304l0,3.212776z"/>
   <path fill="#8986A0" d="m217.598175,124.391006c-0.087112,1.187698 0.22908,2.370193 0.897812,3.357597c0.398117,0.385307 0.875534,0.679802 1.399231,0.863304c0.523697,0.183594 1.081192,0.251694 1.633926,0.1996l2.741959,0c0.14801,0 0.289963,-0.058502 0.394638,-0.162704c0.10466,-0.104202 0.163452,-0.245499 0.163452,-0.392899l0,-1.860001c0,-0.147301 -0.058792,-0.288704 -0.163452,-0.392799c-0.104675,-0.104202 -0.246628,-0.162804 -0.394638,-0.162804l-2.620636,0c-0.135071,0.018501 -0.272644,-0.001099 -0.397049,-0.056595c-0.124405,-0.055504 -0.230652,-0.144699 -0.306641,-0.257401c-0.053635,-0.271202 -0.053635,-0.550102 0,-0.821304l0,-8.454628c-0.001175,-0.13562 0.047546,-0.266968 0.136932,-0.369308c0.089386,-0.102341 0.213303,-0.168602 0.348373,-0.186279l3.081665,0c0.07756,0.00029 0.154343,-0.015526 0.225418,-0.04641c0.071091,-0.030891 0.134918,-0.076195 0.187424,-0.133011c0.052505,-0.056831 0.092545,-0.123924 0.117554,-0.197014c0.025009,-0.073074 0.034454,-0.150551 0.02771,-0.22747l0,-1.932487c0,-0.147346 -0.058792,-0.288673 -0.163467,-0.39286c-0.10466,-0.104187 -0.246613,-0.162727 -0.394638,-0.162727l-3.178741,0c-0.137299,-0.012314 -0.264481,-0.077026 -0.35495,-0.18058c-0.090454,-0.103561 -0.137161,-0.237946 -0.130341,-0.375015l0,-4.251465c0.003281,-0.074959 -0.008743,-0.149811 -0.035324,-0.220032c-0.026566,-0.070229 -0.067169,-0.134361 -0.119308,-0.188538c-0.05217,-0.054176 -0.114807,-0.097275 -0.184143,-0.126694c-0.069336,-0.029419 -0.143951,-0.044548 -0.21933,-0.044479l-2.111069,0c-0.150726,0.011162 -0.292435,0.075821 -0.399307,0.18222c-0.106888,0.1064 -0.171844,0.247467 -0.18306,0.397522l0,16.595261z"/>
   <path fill="#8986A0" d="m199.107697,128.836395c-1.868912,0.000198 -3.662735,-0.732193 -4.993301,-2.038696c-1.330566,-1.306503 -2.090881,-3.082001 -2.116394,-4.94236l0,-2.415611c0.082077,-1.805237 0.854675,-3.510872 2.159409,-4.76725c1.304749,-1.256378 3.042831,-1.968346 4.857956,-1.989967c1.815125,-0.021622 3.569839,0.648743 4.904434,1.873688c1.334503,1.224937 2.147903,2.911674 2.2733,4.714439l0,2.415611c0.012894,0.934387 -0.160904,1.862053 -0.5112,2.728951c-0.350296,0.866997 -0.870193,1.655998 -1.529404,2.321297c-0.659195,0.665207 -1.444702,1.193405 -2.310699,1.553909c-0.866043,0.360489 -1.79541,0.546097 -2.7341,0.54599zm0,-13.140846c-0.999756,-0.000023 -1.958908,0.393677 -2.668106,1.095161c-0.709198,0.701485 -1.110855,1.653786 -1.117264,2.649017l0,2.415611c0.076141,0.94416 0.506668,1.825264 1.205887,2.467659c0.699219,0.642502 1.615829,0.999199 2.567352,0.999199c0.951523,0 1.868134,-0.356697 2.567352,-0.999199c0.699188,-0.642395 1.129776,-1.523499 1.205887,-2.467659l0,-2.415611c-0.006409,-0.991058 -0.404709,-1.939735 -1.108627,-2.640541c-0.703979,-0.700798 -1.656937,-1.097305 -2.652481,-1.103638z"/>
   <path fill="#8986A0" d="m162.492004,113.303589c0,-0.147346 0.058807,-0.288666 0.163467,-0.39286c0.10466,-0.104187 0.246613,-0.162727 0.394638,-0.162727l2.20813,0c0.14801,0 0.289963,0.05854 0.394638,0.162727c0.10466,0.104195 0.163452,0.245514 0.163452,0.39286l0,8.551254c0.076126,0.94416 0.506668,1.825256 1.205887,2.467659c0.699219,0.642502 1.615829,0.999199 2.567352,0.999199c0.951508,0 1.868134,-0.356697 2.567352,-0.999199c0.699188,-0.642403 1.129776,-1.523499 1.205887,-2.467659l0,-8.551254c0,-0.147346 0.058792,-0.288666 0.163498,-0.39286c0.104599,-0.104187 0.246597,-0.162727 0.394592,-0.162727l2.208099,0c0.14801,0 0.290009,0.05854 0.394699,0.162727c0.104614,0.104195 0.163406,0.245514 0.163406,0.39286l0,8.551254c-0.105896,1.80246 -0.899796,3.496559 -2.219193,4.735458c-1.319412,1.238899 -3.064606,1.929001 -4.878342,1.929001c-1.813751,0 -3.558899,-0.690102 -4.878311,-1.929001c-1.319427,-1.238899 -2.113342,-2.932999 -2.219254,-4.735458l0,-8.551254z"/>
   <path fill="#8986A0" d="m157.323395,126.6866l-14.267899,-21.740456c-0.110992,-0.164413 -0.260895,-0.299133 -0.436493,-0.392273c-0.175598,-0.093147 -0.371506,-0.141869 -0.570496,-0.141869c-0.199005,0 -0.394897,0.048721 -0.570511,0.141869c-0.175598,0.09314 -0.3255,0.227859 -0.436493,0.392273l-14.267914,21.740456c-0.090164,0.130798 -0.153,0.278305 -0.184746,0.433807c-0.031754,0.155495 -0.031792,0.315697 -0.000099,0.471191c0.031685,0.155502 0.09446,0.303101 0.18457,0.433899c0.090118,0.130905 0.205734,0.242401 0.339981,0.327911l0.363983,0.169098l14.243622,5.410904c0.204102,0.071899 0.426804,0.071899 0.630905,0l14.26799,-5.338501c0.307907,-0.084808 0.569809,-0.287109 0.728806,-0.563004c0.158997,-0.275902 0.202301,-0.603004 0.120392,-0.910507c-0.018585,-0.130699 -0.068497,-0.254997 -0.145599,-0.362297l0,-0.072502zm-15.286987,-12.077995c0.959793,0 1.898102,0.283295 2.696198,0.814201c0.798096,0.5308 1.420105,1.2854 1.787399,2.168098c0.367294,0.882797 0.463394,1.854195 0.276199,2.791397c-0.187302,0.937202 -0.649506,1.797997 -1.328201,2.473701c-0.678696,0.675598 -1.543396,1.135696 -2.484802,1.322197c-0.941391,0.186401 -1.917191,0.090706 -2.804001,-0.274994c-0.886795,-0.365601 -1.644699,-0.984901 -2.177994,-1.779305c-0.533203,-0.794495 -0.817902,-1.7286 -0.817902,-2.684097c0,-1.281303 0.511292,-2.510201 1.421494,-3.416199c0.91011,-0.906006 2.144501,-1.415001 3.43161,-1.415001zm0,14.493599c-4.853104,0 -9.875961,-1.3769 -9.875961,-3.937401c0,-1.545998 1.844162,-2.657196 4.343475,-3.285301c0.169281,0.364304 0.372375,0.712097 0.606674,1.038704c-2.426559,0.555595 -3.833939,1.497696 -3.833939,2.246597c0,0.338097 0.266922,0.7005 0.800751,1.062798c0.033829,-0.095802 0.082993,-0.185493 0.145584,-0.265701c1.260544,-1.037796 2.830109,-1.632294 4.464813,-1.690895c0.9944,0.662598 2.164093,1.016296 3.360703,1.016296c1.196594,0 2.366302,-0.353699 3.360703,-1.016296c1.604492,0.027496 3.159088,0.560303 4.440598,1.521797c0.065491,0.091202 0.122299,0.188202 0.1698,0.289902c0.509598,-0.362305 0.800797,-0.724701 0.800797,-1.062897c0,-0.748802 -1.383102,-1.690903 -3.833908,-2.246506c0.226501,-0.327202 0.421509,-0.674995 0.582306,-1.038696c2.426605,0.628098 4.343506,1.739197 4.343506,3.285202c0,2.657196 -5.071411,4.082397 -9.8759,4.082397z"/>
   <rect height="6.5" width="49.75" y="240.75" x="110.75" stroke-linecap="null" stroke-linejoin="null" stroke-dasharray="null" stroke-width="null" fill="#827CFF"/>
   <rect height="0.75" width="0.75" y="244.750013" x="159.250011" stroke-linecap="null" stroke-linejoin="null" stroke-dasharray="null" stroke-width="null" fill="#827CFF"/>
   <rect height="6.5" width="97.750001" y="252.375" x="110.375" stroke-linecap="null" stroke-linejoin="null" stroke-dasharray="null" stroke-width="null" fill="#bfbfbf"/>
   <rect height="6.5" width="97.750001" y="265.125" x="110.75" stroke-linecap="null" stroke-linejoin="null" stroke-dasharray="null" stroke-width="null" fill="#bfbfbf"/>
  </g>
 </g>
</svg>