<svg width="356" height="356" viewBox="0 0 356 356" fill="none" xmlns="http://www.w3.org/2000/svg">
<ellipse cx="178" cy="177.778" rx="178" ry="177.778" fill="#F9F9FA"/>
<mask id="mask0" mask-type="alpha" maskUnits="userSpaceOnUse" x="0" y="0" width="356" height="356">
<ellipse cx="178" cy="177.778" rx="178" ry="177.778" fill="#F9F9FA"/>
</mask>
<g mask="url(#mask0)">
<path d="M158.694 0H14.5591C6.51833 0 0 6.48902 0 14.4936V301.951C0 309.955 6.51833 316.444 14.5591 316.444H158.694C166.735 316.444 173.253 309.955 173.253 301.951V14.4936C173.253 6.48902 166.735 0 158.694 0Z" transform="translate(90.1866 44.5556)" fill="#E0DFE6"/>
<path d="M152.871 0H9.70607C4.34555 0 0 4.32601 0 9.66243V96.6243C0 101.961 4.34555 106.287 9.70607 106.287H152.871C158.231 106.287 162.577 101.961 162.577 96.6243V9.66243C162.577 4.32601 158.231 0 152.871 0Z" transform="translate(95.0397 220.895)" fill="white"/>
<path d="M158.694 0H14.5591C10.6978 0 6.99462 1.527 4.26426 4.24509C1.5339 6.96317 0 10.6497 0 14.4936L0 36.2341H173.253V14.4936C173.253 10.6497 171.719 6.96317 168.989 4.24509C166.259 1.527 162.556 0 158.694 0V0Z" transform="translate(90.1866 44.5556)" fill="#3F3D4B"/>
<path d="M0 0V28.9873C0 32.8312 1.5339 36.5178 4.26426 39.2358C6.99462 41.9539 10.6978 43.4809 14.5591 43.4809H158.694C162.556 43.4809 166.259 41.9539 168.989 39.2358C171.719 36.5178 173.253 32.8312 173.253 28.9873V0H0Z" transform="translate(90.1866 317.519)" fill="#3F3D4B"/>
<path d="M69.1557 0H1.21326C0.543194 0 0 0.540752 0 1.2078C0 1.87485 0.543194 2.41561 1.21326 2.41561H69.1557C69.8258 2.41561 70.369 1.87485 70.369 1.2078C70.369 0.540752 69.8258 0 69.1557 0Z" transform="translate(141.143 61.4648)" fill="#B2B1C2"/>
<path d="M12.1326 24.1561C18.8332 24.1561 24.2652 18.7485 24.2652 12.078C24.2652 5.40752 18.8332 0 12.1326 0C5.43194 0 0 5.40752 0 12.078C0 18.7485 5.43194 24.1561 12.1326 24.1561Z" transform="translate(165.409 327.182)" fill="#B2B1C2"/>
<path d="M0 0H4.12612V13.7574H12.8116V16.9695H0V0Z" transform="translate(115 241.124)" fill="#827CFF"/>
<path d="M3.54709 12.6052C2.47333 12.0596 1.57391 11.2348 0.947629 10.2214C0.326756 9.16426 0 7.96613 0 6.74666C0 5.52719 0.326756 4.32907 0.947629 3.27196C1.56796 2.24362 2.46793 1.40433 3.54709 0.847747C4.7241 0.289818 6.01481 0 7.32248 0C8.63016 0 9.92087 0.289818 11.0979 0.847747C12.1861 1.41086 13.0969 2.25395 13.7322 3.28626C14.3675 4.31857 14.7032 5.50101 14.7032 6.70627C14.7032 7.91153 14.3675 9.09395 13.7322 10.1263C13.0969 11.1586 12.1861 12.0017 11.0979 12.5648C9.92087 13.1227 8.63016 13.4125 7.32248 13.4125C6.01481 13.4125 4.7241 13.1227 3.54709 12.5648V12.6052ZM9.73627 9.3729C10.3492 8.6292 10.6835 7.70234 10.6835 6.74666C10.6835 5.79099 10.3492 4.86415 9.73627 4.12044C9.4225 3.79394 9.04121 3.53674 8.61784 3.36603C8.19448 3.19533 7.7388 3.11505 7.28122 3.13054C6.82674 3.11533 6.37421 3.19583 5.95423 3.3666C5.53425 3.53738 5.1566 3.79445 4.84681 4.12044C4.20755 4.85228 3.85627 5.78363 3.85627 6.74666C3.85627 7.7097 4.20755 8.64106 4.84681 9.3729C5.1566 9.69889 5.53425 9.95595 5.95423 10.1267C6.37421 10.2975 6.82674 10.378 7.28122 10.3628C7.74564 10.3841 8.20927 10.3067 8.6402 10.1358C9.07114 9.96495 9.45915 9.70467 9.77753 9.3729H9.73627Z" transform="translate(128.597 244.822)" fill="#827CFF"/>
<path d="M14.6699 0.193855V11.0624C14.7583 12.0259 14.6426 12.9968 14.3303 13.9145C14.0179 14.8322 13.5154 15.6768 12.8544 16.3957C11.2897 17.6453 9.29867 18.2664 7.28413 18.133C6.04389 18.147 4.80777 17.9906 3.61189 17.6684C2.57354 17.419 1.59786 16.9654 0.744232 16.3351L2.2709 13.628C2.88618 14.1051 3.58537 14.468 4.33396 14.6987C5.16563 14.969 6.03653 15.1054 6.91279 15.1028C7.9835 15.1967 9.04938 14.8778 9.88359 14.2139C10.212 13.8531 10.4619 13.4306 10.618 12.9721C10.7741 12.5136 10.8331 12.0288 10.7913 11.5472V10.921C10.2617 11.465 9.61975 11.8923 8.9083 12.1744C8.19685 12.4566 7.4322 12.5871 6.66522 12.5573C5.4951 12.5702 4.33988 12.2996 3.30243 11.7695C2.30656 11.2573 1.47207 10.489 0.88865 9.54728C0.282891 8.55305 -0.0245599 7.41183 0.00153305 6.25439C-0.024002 5.09063 0.283271 3.94307 0.88865 2.9413C1.46934 2.04472 2.28037 1.31324 3.24054 0.820106C4.2946 0.273191 5.47245 -0.00473039 6.66522 0.0120313C7.49597 -0.0438827 8.32833 0.0956511 9.09278 0.418974C9.85723 0.742297 10.5316 1.24002 11.0595 1.87059V0.193855H14.6699ZM9.88359 8.618C10.5047 8.00175 10.853 7.17073 10.853 6.30488C10.853 5.43903 10.5047 4.60803 9.88359 3.99179C9.17628 3.41681 8.28594 3.10208 7.36666 3.10208C6.44738 3.10208 5.55704 3.41681 4.84973 3.99179C4.53722 4.29428 4.28911 4.6545 4.11978 5.05155C3.95045 5.4486 3.86326 5.8746 3.86326 6.30488C3.86326 6.73517 3.95045 7.16118 4.11978 7.55823C4.28911 7.95529 4.53722 8.3155 4.84973 8.618C5.55704 9.19297 6.44738 9.5077 7.36666 9.5077C8.28594 9.5077 9.17628 9.19297 9.88359 8.618Z" transform="translate(144.872 244.849)" fill="#827CFF"/>
<path d="M0.686866 3.61885C0.470756 3.42937 0.297876 3.1974 0.179521 2.93807C0.0611673 2.67874 0 2.39788 0 2.11383C0 1.82978 0.0611673 1.54892 0.179521 1.28959C0.297876 1.03025 0.470756 0.798271 0.686866 0.60879C1.16014 0.190624 1.78312 -0.0272508 2.41984 0.00273059C3.05157 -0.0183403 3.6689 0.190358 4.15281 0.588584C4.36487 0.768933 4.5339 0.99268 4.64797 1.24401C4.76204 1.49534 4.81838 1.76813 4.81299 2.04312C4.81887 2.33602 4.76332 2.62699 4.64976 2.89803C4.53621 3.16906 4.36707 3.41439 4.15281 3.61885C3.67613 4.0314 3.05556 4.24843 2.41984 4.22491C1.78312 4.25489 1.16014 4.03702 0.686866 3.61885ZM0.480555 6.04308H4.33848V19.0934H0.480555V6.04308Z" transform="translate(162.651 239)" fill="#827CFF"/>
<path d="M12.0895 1.46187C12.6326 2.03768 13.0485 2.71703 13.3112 3.45743C13.5739 4.19784 13.6777 4.98335 13.6162 5.76484V13.2395H9.8408V6.3507C9.90681 5.51817 9.65708 4.69102 9.13936 4.02749C8.87569 3.7581 8.55301 3.55086 8.19563 3.42138C7.83826 3.2919 7.45553 3.24357 7.0763 3.28003C6.65029 3.25631 6.224 3.32147 5.82565 3.47123C5.42731 3.62099 5.06601 3.85192 4.76567 4.14871C4.44109 4.52334 4.19556 4.95725 4.04329 5.42536C3.89102 5.89348 3.83503 6.38651 3.87856 6.87595V13.3203H0V0.189164H3.65162V1.72449C4.18661 1.16587 4.84206 0.731094 5.57026 0.451781C6.36431 0.143957 7.21268 -0.00708885 8.06657 0.00733953C8.80287 -0.0305963 9.53935 0.078814 10.231 0.328895C10.9227 0.578977 11.5551 0.964484 12.0895 1.46187Z" transform="translate(170.579 244.854)" fill="#827CFF"/>
<path d="M5.98288 9.34147C6.4796 8.6786 7.04667 8.06915 7.67459 7.52332C8.11301 7.15121 8.51373 6.73853 8.87117 6.29101C9.1297 5.9765 9.2683 5.58362 9.26315 5.17991C9.27013 4.89933 9.20595 4.62145 9.07633 4.37113C8.94671 4.12081 8.75571 3.90588 8.52044 3.74558C7.94671 3.37651 7.26634 3.19932 6.58117 3.24054C5.86392 3.2171 5.15283 3.37726 4.51811 3.70519C3.914 4.02371 3.39191 4.47275 2.99144 5.01829L0 3.30114C0.703037 2.24687 1.68772 1.40144 2.84703 0.856728C4.13958 0.273206 5.55007 -0.0168347 6.97315 0.00825717C8.58217 -0.0650599 10.1749 0.351304 11.5325 1.20016C12.082 1.55949 12.5281 2.05101 12.8279 2.62761C13.1277 3.2042 13.2713 3.84654 13.2449 4.49306C13.261 5.09503 13.1486 5.69366 12.9148 6.2506C12.7152 6.71292 12.4438 7.14224 12.1102 7.52332C11.7801 7.86675 11.3675 8.27078 10.8517 8.71522C10.3661 9.12815 9.9175 9.58097 9.51071 10.0687C9.23368 10.4522 9.0891 10.9123 9.0981 11.3819H5.44649C5.41066 10.6643 5.59767 9.95291 5.98288 9.34147ZM5.5909 16.8767C5.3719 16.6748 5.19826 16.4304 5.08105 16.1591C4.96383 15.8878 4.90561 15.5956 4.91009 15.301C4.90232 15.0138 4.95719 14.7284 5.07103 14.4636C5.18488 14.1988 5.35507 13.9609 5.57026 13.7657C6.0363 13.347 6.65042 13.1224 7.28261 13.1394C7.91407 13.1266 8.52664 13.3507 8.99495 13.7657C9.21014 13.9609 9.38033 14.1988 9.49418 14.4636C9.60802 14.7284 9.66289 15.0138 9.65512 15.301C9.6596 15.5956 9.60138 15.8878 9.48417 16.1591C9.36695 16.4304 9.19331 16.6748 8.97432 16.8767C8.50705 17.2801 7.90553 17.5027 7.28261 17.5027C6.65969 17.5027 6.05817 17.2801 5.5909 16.8767Z" transform="translate(184.752 240.772)" fill="#827CFF"/>
<path d="M60.6629 0H2.42652C1.08639 0 0 1.0815 0 2.41561V14.4936C0 15.8277 1.08639 16.9092 2.42652 16.9092H60.6629C62.0031 16.9092 63.0894 15.8277 63.0894 14.4936V2.41561C63.0894 1.0815 62.0031 0 60.6629 0Z" transform="translate(182.394 290.947)" fill="#5C50CA"/>
<path d="M60.6629 0H2.42652C1.08639 0 0 1.0815 0 2.41561V14.4936C0 15.8277 1.08639 16.9092 2.42652 16.9092H60.6629C62.0031 16.9092 63.0894 15.8277 63.0894 14.4936V2.41561C63.0894 1.0815 62.0031 0 60.6629 0Z" transform="translate(109.599 290.947)" stroke="#5C50CA" stroke-miterlimit="10"/>
<path d="M8.83252 0.531432C8.83373 0.402188 8.78759 0.276936 8.70273 0.179117C8.61787 0.0812985 8.50011 0.0176193 8.37149 0H7.95897C7.18391 0.0185662 6.41564 0.148749 5.67805 0.386497C4.75176 0.653639 3.91402 1.16236 3.25153 1.86001V0.628054C3.25153 0.480702 3.19273 0.339387 3.08806 0.235194C2.9834 0.131001 2.84145 0.0724652 2.69344 0.0724652H0.558098C0.410081 0.0724652 0.268123 0.131001 0.163459 0.235194C0.0587954 0.339387 0 0.480702 0 0.628054V15.3633C0 15.5106 0.0587954 15.6519 0.163459 15.7561C0.268123 15.8603 0.410081 15.9188 0.558098 15.9188H2.66917C2.74447 15.9221 2.81966 15.9101 2.8902 15.8837C2.96074 15.8572 3.02516 15.8168 3.07959 15.7649C3.13401 15.713 3.1773 15.6506 3.20685 15.5816C3.2364 15.5126 3.2516 15.4383 3.25153 15.3633V7.70578C3.20042 7.07266 3.30394 6.43662 3.55323 5.85195C3.80252 5.26727 4.1902 4.75131 4.68318 4.34809C5.67615 3.46729 6.92598 2.9256 8.25015 2.8021C8.39195 2.7904 8.52454 2.72743 8.62289 2.62507C8.72124 2.52271 8.77855 2.38805 8.78399 2.24651V0.507275L8.83252 0.531432Z" transform="translate(208.528 112.676)" fill="#8986A0"/>
<path d="M10.434 1.55854C8.82867 0.452429 6.89967 -0.0913862 4.9501 0.0125532H0.558098C0.410081 0.0125532 0.268123 0.0710888 0.163459 0.175282C0.0587954 0.279475 0 0.42079 0 0.568142V20.6418C0 20.7892 0.0587954 20.9305 0.163459 21.0347C0.268123 21.1389 0.410081 21.1974 0.558098 21.1974H2.7177C2.86571 21.1974 3.00767 21.1389 3.11234 21.0347C3.217 20.9305 3.27579 20.7892 3.27579 20.6418V16.3662C3.26897 16.2291 3.31568 16.0948 3.40614 15.9912C3.4966 15.8876 3.6238 15.8229 3.7611 15.8106H5.02289C6.97735 15.8961 8.90283 15.3168 10.4826 14.168C11.2066 13.6254 11.7863 12.9147 12.1712 12.0978C12.5561 11.281 12.7344 10.3829 12.6907 9.48174V6.26897C12.7287 5.36019 12.5429 4.45593 12.1496 3.63495C11.7563 2.81396 11.1673 2.10114 10.434 1.55854ZM9.26929 9.48174C9.29937 9.94254 9.21557 10.4037 9.02521 10.8248C8.83486 11.2459 8.54375 11.6141 8.17736 11.8973C7.18912 12.5024 6.0342 12.7814 4.8773 12.6945H3.73684C3.66465 12.6946 3.59318 12.6801 3.52678 12.6518C3.46038 12.6236 3.40041 12.5823 3.35051 12.5304C3.30061 12.4785 3.26181 12.417 3.23645 12.3497C3.2111 12.2824 3.19972 12.2107 3.203 12.1389V3.58765C3.203 3.4403 3.2618 3.29898 3.36646 3.19479C3.47113 3.0906 3.61308 3.03206 3.7611 3.03206H4.8773C6.03651 2.95567 7.19063 3.24291 8.17736 3.85337C8.54375 4.13657 8.83486 4.50483 9.02521 4.92593C9.21557 5.34704 9.29937 5.80817 9.26929 6.26897V9.48174Z" transform="translate(179.41 112.736)" fill="#8986A0"/>
<path d="M0.0141749 17.175C-0.0729308 18.3627 0.243254 19.5452 0.911993 20.5326C1.31011 20.9179 1.78752 21.2124 2.31122 21.3959C2.83492 21.5795 3.39241 21.6476 3.94514 21.5955H6.6871C6.83511 21.5955 6.97707 21.537 7.08174 21.4328C7.1864 21.3286 7.2452 21.1873 7.2452 21.0399V19.1799C7.2452 19.0326 7.1864 18.8912 7.08174 18.7871C6.97707 18.6829 6.83511 18.6243 6.6871 18.6243H4.06646C3.9314 18.6428 3.79383 18.6232 3.66942 18.5677C3.54501 18.5122 3.43876 18.423 3.36277 18.3103C3.30914 18.0391 3.30914 17.7602 3.36277 17.489V9.03437C3.36161 8.89875 3.41032 8.7674 3.49971 8.66506C3.5891 8.56272 3.71301 8.49646 3.84808 8.47878H6.92975C7.00731 8.47907 7.08409 8.46326 7.15517 8.43237C7.22625 8.40148 7.29008 8.35618 7.34259 8.29936C7.3951 8.24253 7.43514 8.17544 7.46015 8.10235C7.48516 8.02927 7.4946 7.9518 7.48785 7.87488V5.94239C7.48785 5.79504 7.42906 5.65372 7.32439 5.54953C7.21973 5.44534 7.07777 5.3868 6.92975 5.3868H3.75101C3.61371 5.37449 3.48652 5.30978 3.39606 5.20622C3.3056 5.10266 3.25889 4.96828 3.26571 4.83121V0.579745C3.26899 0.504777 3.25698 0.429925 3.2304 0.359705C3.20383 0.289484 3.16323 0.225352 3.11108 0.171174C3.05892 0.116997 2.99628 0.0738994 2.92694 0.0444801C2.8576 0.0150608 2.78299 -7.07119e-05 2.70761 2.48427e-07H0.596543C0.445807 0.0111606 0.30411 0.0758231 0.19723 0.182223C0.0903495 0.288623 0.0253856 0.429687 0.0141749 0.579745V17.175Z" transform="translate(218.584 107.216)" fill="#8986A0"/>
<path d="M7.1097 16.1544C5.24078 16.1546 3.44696 15.4222 2.11639 14.1157C0.785819 12.8092 0.0255141 11.0337 0 9.17334V6.75773C0.0820702 4.95249 0.854665 3.24686 2.15941 1.99048C3.46416 0.7341 5.20224 0.022129 7.01736 0.000507219C8.83249 -0.0211146 10.5872 0.649253 11.9218 1.8742C13.2563 3.09914 14.0697 4.78587 14.1951 6.58864V9.00425C14.208 9.93864 14.0342 10.8663 13.6839 11.7332C13.3336 12.6002 12.8137 13.3892 12.1545 14.0545C11.4953 14.7197 10.7098 15.2479 9.84379 15.6084C8.97775 15.9689 8.04839 16.1545 7.1097 16.1544ZM7.1097 3.01355C6.10994 3.01353 5.15079 3.40723 4.44159 4.10871C3.73239 4.8102 3.33074 5.7625 3.32433 6.75773V9.17334C3.40046 10.1175 3.83099 10.9986 4.53021 11.641C5.22943 12.2835 6.14604 12.6402 7.09756 12.6402C8.04908 12.6402 8.9657 12.2835 9.66492 11.641C10.3641 10.9986 10.7947 10.1175 10.8708 9.17334V6.75773C10.8644 5.76667 10.4661 4.81799 9.76217 4.11719C9.0582 3.41639 8.10524 3.01988 7.1097 3.01355Z" transform="translate(192.998 112.682)" fill="#8986A0"/>
<path d="M0 0.555588C0 0.408237 0.0588 0.266922 0.163464 0.162729C0.268128 0.0585356 0.410085 0 0.558102 0H2.76623C2.91425 0 3.0562 0.0585356 3.16087 0.162729C3.26553 0.266922 3.32433 0.408237 3.32433 0.555588V9.10684C3.40045 10.051 3.83099 10.9321 4.53021 11.5745C5.22943 12.217 6.14604 12.5737 7.09756 12.5737C8.04908 12.5737 8.9657 12.217 9.66492 11.5745C10.3641 10.9321 10.7947 10.051 10.8708 9.10684V0.555588C10.8708 0.408237 10.9296 0.266922 11.0343 0.162729C11.1389 0.0585356 11.2809 0 11.4289 0H13.637C13.785 0 13.927 0.0585356 14.0317 0.162729C14.1363 0.266922 14.1951 0.408237 14.1951 0.555588V9.10684C14.0892 10.9093 13.2953 12.6034 11.9759 13.8423C10.6565 15.0812 8.9113 15.7713 7.09756 15.7713C5.28382 15.7713 3.53867 15.0812 2.21925 13.8423C0.899826 12.6034 0.105914 10.9093 0 9.10684V0.555588Z" transform="translate(163.492 112.748)" fill="#8986A0"/>
<path d="M30.7584 22.2746L16.4905 0.534136C16.3795 0.369726 16.2296 0.235012 16.054 0.141867C15.8784 0.0487207 15.6825 0 15.4835 0C15.2845 0 15.0886 0.0487207 14.913 0.141867C14.7374 0.235012 14.5875 0.369726 14.4765 0.534136L0.208587 22.2746C0.118421 22.4054 0.0555945 22.5529 0.0238404 22.7084C-0.00791381 22.8639 -0.0079473 23.0241 0.0237432 23.1796C0.0554336 23.3351 0.118201 23.4827 0.208314 23.6135C0.298427 23.7444 0.414046 23.8559 0.5483 23.9414L0.912277 24.1105L15.1559 29.5214C15.36 29.5933 15.5827 29.5933 15.7868 29.5214L30.0548 24.1829C30.3627 24.0981 30.6246 23.8958 30.7836 23.6199C30.9426 23.344 30.9859 23.0169 30.904 22.7094C30.8854 22.5787 30.8355 22.4544 30.7584 22.3471V22.2746ZM15.4714 10.1966C16.4312 10.1966 17.3695 10.4799 18.1676 11.0108C18.9657 11.5416 19.5877 12.2962 19.955 13.1789C20.3223 14.0617 20.4184 15.0331 20.2312 15.9703C20.0439 16.9075 19.5817 17.7683 18.903 18.444C18.2243 19.1196 17.3596 19.5797 16.4182 19.7662C15.4768 19.9526 14.501 19.8569 13.6142 19.4912C12.7274 19.1256 11.9695 18.5063 11.4362 17.7119C10.903 16.9174 10.6183 15.9833 10.6183 15.0278C10.6183 13.7465 11.1296 12.5176 12.0398 11.6116C12.9499 10.7056 14.1843 10.1966 15.4714 10.1966ZM15.4714 24.6902C10.6183 24.6902 5.59545 23.3133 5.59545 20.7528C5.59545 19.2068 7.43961 18.0956 9.93892 17.4675C10.1082 17.8318 10.3113 18.1796 10.5456 18.5062C8.11903 19.0618 6.71165 20.0039 6.71165 20.7528C6.71165 21.0909 6.97857 21.4533 7.5124 21.8156C7.54623 21.7198 7.5954 21.6301 7.65799 21.5499C8.91853 20.5121 10.4881 19.9176 12.1228 19.859C13.1172 20.5216 14.2869 20.8753 15.4835 20.8753C16.6801 20.8753 17.8498 20.5216 18.8442 19.859C20.4487 19.8865 22.0033 20.4193 23.2848 21.3808C23.3503 21.472 23.4071 21.569 23.4546 21.6707C23.9642 21.3084 24.2554 20.946 24.2554 20.6078C24.2554 19.859 22.8723 18.9169 20.4215 18.3613C20.648 18.0341 20.843 17.6863 21.0038 17.3226C23.4304 17.9507 25.3473 19.0618 25.3473 20.6078C25.3473 23.265 20.2759 24.6902 15.4714 24.6902Z" transform="translate(127.565 104.412)" fill="#8986A0"/>
</g>
</svg>
