<svg width="356" height="357" viewBox="0 0 356 357" fill="none" xmlns="http://www.w3.org/2000/svg">
<rect width="356" height="356.556" fill="black" fill-opacity="0"/>
<ellipse cx="178" cy="178.778" rx="178" ry="177.778" fill="#E0FDF0"/>
<rect width="356" height="355.556" fill="black" fill-opacity="0"/>
<mask id="mask0" mask-type="alpha" maskUnits="userSpaceOnUse" x="0" y="0" width="356" height="356">
<ellipse cx="178" cy="177.778" rx="178" ry="177.778" fill="#F9F9FA"/>
</mask>
<g mask="url(#mask0)">
<rect width="173.253" height="316.444" fill="black" fill-opacity="0" transform="translate(90.1866 44.5555)"/>
<rect width="173.253" height="316.444" fill="black" fill-opacity="0" transform="translate(90.1866 44.5555)"/>
<rect width="173.253" height="316.444" fill="black" fill-opacity="0" transform="translate(90.1866 44.5555)"/>
<path d="M248.881 44.5555H104.746C96.705 44.5555 90.1866 51.0446 90.1866 59.0492V346.506C90.1866 354.511 96.705 361 104.746 361H248.881C256.922 361 263.44 354.511 263.44 346.506V59.0492C263.44 51.0446 256.922 44.5555 248.881 44.5555Z" fill="#E0DFE6"/>
<path d="M248.269 145H104.731C99.3569 145 95 152.774 95 162.364V318.636C95 328.226 99.3569 336 104.731 336H248.269C253.643 336 258 328.226 258 318.636V162.364C258 152.774 253.643 145 248.269 145Z" fill="#36B87B"/>
<rect x="95" y="89" width="163" height="245" rx="8" fill="#36B87B"/>
<path d="M248.881 44.5555H104.746C100.884 44.5555 97.1813 46.0825 94.4509 48.8006C91.7205 51.5187 90.1866 55.2052 90.1866 59.0492V80.7896H263.44V59.0492C263.44 55.2052 261.906 51.5187 259.176 48.8006C256.445 46.0825 252.742 44.5555 248.881 44.5555V44.5555Z" fill="#3F3D4B"/>
<path d="M90.1866 317.519V346.506C90.1866 350.35 91.7205 354.037 94.4509 356.755C97.1813 359.473 100.884 361 104.746 361H248.881C252.742 361 256.445 359.473 259.176 356.755C261.906 354.037 263.44 350.35 263.44 346.506V317.519H90.1866Z" fill="#3F3D4B"/>
<path d="M210.299 61.4648H142.357C141.687 61.4648 141.144 62.0055 141.144 62.6726C141.144 63.3396 141.687 63.8804 142.357 63.8804H210.299C210.969 63.8804 211.513 63.3396 211.513 62.6726C211.513 62.0055 210.969 61.4648 210.299 61.4648Z" fill="#B2B1C2"/>
<path d="M177.541 351.338C184.242 351.338 189.674 345.93 189.674 339.26C189.674 332.589 184.242 327.181 177.541 327.181C170.841 327.181 165.409 332.589 165.409 339.26C165.409 345.93 170.841 351.338 177.541 351.338Z" fill="#B2B1C2"/>
<rect width="90" height="90" fill="black" fill-opacity="0" transform="translate(133 130)"/>
<path d="M178 220C166.065 220 154.619 215.259 146.18 206.82C137.741 198.381 133 186.935 133 175C133 163.065 137.741 151.619 146.18 143.18C154.619 134.741 166.065 130 178 130C189.935 130 201.381 134.741 209.82 143.18C218.259 151.619 223 163.065 223 175C223 186.935 218.259 198.381 209.82 206.82C201.381 215.259 189.935 220 178 220ZM178 211C187.548 211 196.705 207.207 203.456 200.456C210.207 193.705 214 184.548 214 175C214 165.452 210.207 156.295 203.456 149.544C196.705 142.793 187.548 139 178 139C168.452 139 159.295 142.793 152.544 149.544C145.793 156.295 142 165.452 142 175C142 184.548 145.793 193.705 152.544 200.456C159.295 207.207 168.452 211 178 211ZM167.65 171.85L173.5 177.655L188.35 162.805C189.216 162.073 190.326 161.696 191.459 161.747C192.591 161.799 193.662 162.276 194.458 163.083C195.254 163.891 195.716 164.969 195.752 166.102C195.787 167.235 195.394 168.339 194.65 169.195L176.65 187.195C175.809 188.02 174.678 188.481 173.5 188.481C172.322 188.481 171.191 188.02 170.35 187.195L161.35 178.195C160.606 177.339 160.213 176.235 160.248 175.102C160.284 173.969 160.746 172.891 161.542 172.083C162.338 171.276 163.409 170.799 164.541 170.747C165.674 170.696 166.784 171.073 167.65 171.805V171.85Z" fill="white"/>
</g>
</svg>
